<svg width="24" height="25" viewBox="0 0 24 25" fill="none" xmlns="http://www.w3.org/2000/svg">
<g clip-path="url(#clip0_303_1627)">
<path d="M19.875 2.75H4.125C3.50625 2.75 3 3.19939 3 3.75481V23.2148C3 23.7702 3.36563 23.9116 3.82125 23.5228L11.5444 16.9486C11.7244 16.7971 12.0225 16.7971 12.2025 16.9436L20.1731 23.5379C20.6287 23.9166 21 23.7702 21 23.2148V3.75481C21 3.19939 20.4994 2.75 19.875 2.75ZM19.3125 20.7709L13.3444 15.8327C12.9281 15.4894 12.405 15.3177 11.8763 15.3177C11.3363 15.3177 10.8019 15.4944 10.3856 15.8479L4.6875 20.7002V4.26479H19.3125V20.7709Z" fill="black" stroke="black" stroke-width="0.7"/>
</g>
<defs>
<clipPath id="clip0_303_1627">
<rect width="24" height="24" fill="white" transform="translate(0 0.75)"/>
</clipPath>
</defs>
</svg>
