<svg width="24" height="25" viewBox="0 0 24 25" fill="none" xmlns="http://www.w3.org/2000/svg">
<path fill-rule="evenodd" clip-rule="evenodd" d="M22.8555 4.19542C22.6978 3.91703 22.3962 3.75 22.0714 3.75L2.91369 3.76392C2.52859 3.76392 2.19453 4.00055 2.05997 4.35781C1.96254 4.61764 1.98574 4.89603 2.11565 5.12338C2.16669 5.20689 2.23165 5.28577 2.31052 5.35537L9.69243 11.7212L11.4927 21.2838C11.5623 21.6596 11.8499 21.938 12.2304 21.9983C12.6062 22.0586 12.9774 21.8823 13.1723 21.5529L22.8509 5.10018C23.0179 4.81715 23.0179 4.47381 22.8555 4.19542ZM4.21748 5.14194H19.8164L10.4255 10.5009L4.21748 5.14194ZM12.6248 19.7341L11.1122 11.698L20.5171 6.33436L12.6248 19.7341Z" fill="black" stroke="black" stroke-width="0.7"/>
</svg>
